<?xml version="1.0" encoding="UTF-8"?>
<svg id="Layer_4" data-name="Layer 4" xmlns="http://www.w3.org/2000/svg" viewBox="0 0 316.75 326.78">
  <defs>
    <style>
      .cls-1 {
        stroke-width: 12.03px;
      }

      .cls-1, .cls-2, .cls-3 {
        stroke: #000;
        stroke-miterlimit: 10;
      }

      .cls-2 {
        stroke-width: 2.8px;
      }

      .cls-3 {
        stroke-width: 8.26px;
      }
    </style>
  </defs>
  <circle cx="131.38" cy="89.92" r="21.6"/>
  <circle class="cls-3" cx="91.64" cy="95.66" r="6.66"/>
  <circle cx="232.34" cy="134.1" r="21.6"/>
  <circle class="cls-3" cx="223.15" cy="99.44" r="6.66"/>
  <circle cx="188.84" cy="241.02" r="21.6"/>
  <circle class="cls-3" cx="222.82" cy="228.84" r="6.69"/>
  <circle cx="87.88" cy="196.6" r="21.6"/>
  <circle class="cls-3" cx="95.94" cy="228.82" r="6.66"/>
  <circle class="cls-2" cx="83.96" cy="134.1" r="21.6"/>
  <circle class="cls-3" cx="62.83" cy="166.45" r="6.66"/>
  <circle class="cls-2" cx="232.34" cy="195.83" r="21.6"/>
  <circle class="cls-3" cx="254.1" cy="164.45" r="6.66"/>
  <circle class="cls-1" cx="273.35" cy="116.48" r="10.11"/>
  <circle class="cls-1" cx="273.35" cy="210.31" r="10.11"/>
  <circle class="cls-1" cx="44.47" cy="116.48" r="10.11"/>
  <circle class="cls-1" cx="44.47" cy="210.31" r="10.11"/>
  <circle class="cls-1" cx="205.89" cy="279.06" r="10.15"/>
  <circle class="cls-1" cx="112.7" cy="278.28" r="10.11"/>
  <circle class="cls-1" cx="205.11" cy="49.17" r="10.11"/>
  <circle class="cls-1" cx="112.12" cy="49.4" r="10.11"/>
  <circle class="cls-2" cx="188.84" cy="88.89" r="21.6"/>
  <circle class="cls-2" cx="129.43" cy="241.02" r="21.6"/>
  <circle class="cls-3" cx="159.22" cy="66.71" r="6.66"/>
  <circle class="cls-3" cx="159.22" cy="261.5" r="6.69"/>
  <path d="M185.87,120.8c-30.18-19.11-70.51,2.84-77,36.53-7.51,36.16,26.82,68.15,62.41,58.38,19.52-5.26,33.44-23.56,36.22-43.1,3.09-19.4-4.36-41.16-21.64-51.8Zm-20.05,76.06l-10.95-25.73v25.73h-20.34v-64.32h20.34v25.73l9.39-25.73h23.47l-14.87,32.16,16.43,32.16h-23.47Z"/>
</svg>