<?xml version="1.0" encoding="utf-8"?>
<!-- Generator: Adobe Illustrator 27.0.0, SVG Export Plug-In . SVG Version: 6.00 Build 0)  -->
<svg version="1.1" xmlns="http://www.w3.org/2000/svg" xmlns:xlink="http://www.w3.org/1999/xlink" x="0px" y="0px"
	 viewBox="0 0 51.1 49.6" style="enable-background:new 0 0 51.1 49.6;" xml:space="preserve">
<style type="text/css">
	.st0{display:none;}
	.st1{display:inline;}
	.st2{fill:#326CE5;}
	.st3{fill:#FFFFFF;}
	.st4{font-family:'ArialMT';}
	.st5{font-size:8px;}
	.st6{fill-rule:evenodd;clip-rule:evenodd;fill:#FFFFFF;}
	.st7{display:inline;fill:#FFFFFF;}
	.st8{display:inline;fill-rule:evenodd;clip-rule:evenodd;fill:#FFFFFF;}
</style>
<g id="svg13826" xmlns:svg="http://www.w3.org/2000/svg" xmlns:rdf="http://www.w3.org/1999/02/22-rdf-syntax-ns#" xmlns:inkscape="http://www.inkscape.org/namespaces/inkscape" xmlns:cc="http://creativecommons.org/ns#" xmlns:sodipodi="http://sodipodi.sourceforge.net/DTD/sodipodi-0.dtd" xmlns:dc="http://purl.org/dc/elements/1.1/" inkscape:version="0.91 r13725" sodipodi:docname="pod.svg" class="st0">
	
		<sodipodi:namedview  bordercolor="#666666" borderopacity="1.0" fit-margin-bottom="0" fit-margin-left="0" fit-margin-right="0" fit-margin-top="0" id="base" inkscape:current-layer="layer1" inkscape:cx="16.847496" inkscape:cy="33.752239" inkscape:document-units="mm" inkscape:pageopacity="0.0" inkscape:pageshadow="2" inkscape:window-height="775" inkscape:window-maximized="1" inkscape:window-width="1440" inkscape:window-x="0" inkscape:window-y="1" inkscape:zoom="8" pagecolor="#ffffff" showgrid="false">
		</sodipodi:namedview>
	<g id="layer1" transform="translate(-0.99262638,-1.174181)" inkscape:groupmode="layer" inkscape:label="Calque 1" class="st1">
		<g id="g70" transform="matrix(1.0148887,0,0,1.0148887,16.902146,-2.698726)">
			
				<path id="path3055" inkscape:connector-curvature="0" inkscape:export-filename="new.png" inkscape:export-xdpi="250.55" inkscape:export-ydpi="250.55" class="st2" d="
				M9.3,5.1c-0.4,0-0.8,0.1-1.2,0.3l-16.6,7.9c-0.9,0.4-1.5,1.2-1.7,2.1l-4.1,17.8c-0.2,0.8,0,1.7,0.4,2.4c0.1,0.1,0.1,0.2,0.2,0.3
				l11.5,14.3c0.6,0.7,1.5,1.2,2.5,1.2l18.4,0c1,0,1.9-0.4,2.5-1.2l11.5-14.3c0.6-0.7,0.8-1.7,0.6-2.7l-4.1-17.8
				c-0.2-0.9-0.8-1.7-1.7-2.1L10.9,5.4C10.4,5.2,9.9,5.1,9.3,5.1z"/>
			<path id="path3054-2-9" inkscape:connector-curvature="0" class="st3" d="M9.3,3.8C8.9,3.8,8.5,4,8.1,4.1l-17.5,8.4
				c-0.9,0.4-1.6,1.3-1.8,2.3l-4.3,18.8c-0.2,0.9,0,1.8,0.5,2.5c0.1,0.1,0.1,0.2,0.2,0.3l12.1,15.1c0.6,0.8,1.6,1.2,2.6,1.2l19.4,0
				c1,0,2-0.5,2.6-1.2L34,36.4c0.6-0.8,0.9-1.8,0.6-2.8l-4.3-18.8c-0.2-1-0.9-1.8-1.8-2.3L11,4.1C10.5,3.9,9.9,3.8,9.3,3.8z
				 M9.3,5.1c0.5,0,1.1,0.1,1.5,0.3l16.6,7.9c0.9,0.4,1.5,1.2,1.7,2.1l4.1,17.8c0.2,0.9,0,1.9-0.6,2.7L21.2,50.2
				c-0.6,0.7-1.5,1.2-2.5,1.2l-18.4,0c-1,0-1.9-0.4-2.5-1.2l-11.5-14.3c-0.1-0.1-0.1-0.2-0.2-0.3c-0.5-0.7-0.6-1.6-0.4-2.4l4.1-17.8
				c0.2-0.9,0.8-1.7,1.7-2.1L8.1,5.4C8.5,5.2,8.9,5.1,9.3,5.1L9.3,5.1z"/>
		</g>
		<text transform="matrix(1 0 0 1 19.9008 45.5023)" class="st3 st4 st5">pod</text>
		<g id="g3341" transform="translate(0.12766661,0)">
			
				<path id="path910" inkscape:connector-curvature="0" inkscape:export-xdpi="376.57999" inkscape:export-ydpi="376.57999" class="st6" d="
				M16.2,17.8l10.3-3l10.3,3l-10.3,3L16.2,17.8z"/>
			
				<path id="path912" inkscape:connector-curvature="0" inkscape:export-xdpi="376.57999" inkscape:export-ydpi="376.57999" class="st6" d="
				M16.2,18.9v10.9l9.6,5.3l0-13.4L16.2,18.9z"/>
			
				<path id="path914" inkscape:connector-curvature="0" inkscape:export-xdpi="376.57999" inkscape:export-ydpi="376.57999" class="st6" d="
				M36.7,18.9v10.9l-9.6,5.3l0-13.4L36.7,18.9z"/>
		</g>
	</g>
</g>
<g id="Layer_4">
	
		<sodipodi:namedview  bordercolor="#666666" borderopacity="1.0" fit-margin-bottom="0" fit-margin-left="0" fit-margin-right="0" fit-margin-top="0" id="base" inkscape:current-layer="layer1" inkscape:cx="16.847496" inkscape:cy="33.752239" inkscape:document-units="mm" inkscape:pageopacity="0.0" inkscape:pageshadow="2" inkscape:window-height="775" inkscape:window-maximized="1" inkscape:window-width="1440" inkscape:window-x="0" inkscape:window-y="1" inkscape:zoom="8" pagecolor="#ffffff" showgrid="false">
		</sodipodi:namedview>
	
		<g id="layer1_00000008129775858086659220000007275315217485392802_" transform="translate(-0.99262638,-1.174181)" inkscape:groupmode="layer" inkscape:label="Calque 1">
		
			<g id="g70_00000003077844821592564900000014758688827009001105_" transform="matrix(1.0148887,0,0,1.0148887,16.902146,-2.698726)">
			
				<path id="path3055_00000181061697154986404220000014035551032556562831_" inkscape:connector-curvature="0" inkscape:export-filename="new.png" inkscape:export-xdpi="250.55" inkscape:export-ydpi="250.55" class="st2" d="
				M9.3,5.1c-0.4,0-0.8,0.1-1.2,0.3l-16.6,7.9c-0.9,0.4-1.5,1.2-1.7,2.1l-4.1,17.8c-0.2,0.8,0,1.7,0.4,2.4c0.1,0.1,0.1,0.2,0.2,0.3
				l11.5,14.3c0.6,0.7,1.5,1.2,2.5,1.2l18.4,0c1,0,1.9-0.4,2.5-1.2l11.5-14.3c0.6-0.7,0.8-1.7,0.6-2.7l-4.1-17.8
				c-0.2-0.9-0.8-1.7-1.7-2.1L10.9,5.4C10.4,5.2,9.9,5.1,9.3,5.1z"/>
			<path id="path3054-2-9_00000114790134618729641140000017618403893391881114_" inkscape:connector-curvature="0" class="st3" d="
				M9.3,3.8C8.9,3.8,8.5,4,8.1,4.1l-17.5,8.4c-0.9,0.4-1.6,1.3-1.8,2.3l-4.3,18.8c-0.2,0.9,0,1.8,0.5,2.5c0.1,0.1,0.1,0.2,0.2,0.3
				l12.1,15.1c0.6,0.8,1.6,1.2,2.6,1.2l19.4,0c1,0,2-0.5,2.6-1.2L34,36.4c0.6-0.8,0.9-1.8,0.6-2.8l-4.3-18.8c-0.2-1-0.9-1.8-1.8-2.3
				L11,4.1C10.5,3.9,9.9,3.8,9.3,3.8z M9.3,5.1c0.5,0,1.1,0.1,1.5,0.3l16.6,7.9c0.9,0.4,1.5,1.2,1.7,2.1l4.1,17.8
				c0.2,0.9,0,1.9-0.6,2.7L21.2,50.2c-0.6,0.7-1.5,1.2-2.5,1.2l-18.4,0c-1,0-1.9-0.4-2.5-1.2l-11.5-14.3c-0.1-0.1-0.1-0.2-0.2-0.3
				c-0.5-0.7-0.6-1.6-0.4-2.4l4.1-17.8c0.2-0.9,0.8-1.7,1.7-2.1L8.1,5.4C8.5,5.2,8.9,5.1,9.3,5.1L9.3,5.1z"/>
		</g>
	</g>
	<g class="st0">
		<path class="st7" d="M25.5,14.1l9.3,2.7v12l-9.3,3.7l-9.2-3.3V16.8L25.5,14.1 M25.5,12.8l-10.5,3l0,0v14.2l10.5,3.8l10.5-4.1V15.8
			h0L25.5,12.8L25.5,12.8z"/>
	</g>
	<g id="g3341_00000036228807408287683810000002260048987612758403_" transform="translate(0.12766661,0)">
		
			<path id="path910_00000078004156092111578090000011736600048859325586_" inkscape:connector-curvature="0" inkscape:export-xdpi="376.57999" inkscape:export-ydpi="376.57999" class="st6" d="
			M18.1,18.7l7.3-2.1l7.3,2.1l-7.3,2.1L18.1,18.7z"/>
		
			<path id="path912_00000141426963647613258240000018295776210847011260_" inkscape:connector-curvature="0" inkscape:export-xdpi="376.57999" inkscape:export-ydpi="376.57999" class="st6" d="
			M18.1,19.7v7.8l6.8,2.4l0-8.1L18.1,19.7z"/>
		
			<path id="path914_00000124140999080436140390000001193013172524411289_" inkscape:connector-curvature="0" inkscape:export-xdpi="376.57999" inkscape:export-ydpi="376.57999" class="st6" d="
			M32.8,19.7v7.8L26,29.8l0-8.1L32.8,19.7z"/>
	</g>
	<text transform="matrix(1 0 0 1 9.0509 39.2322)" class="st3 st4 st5">container</text>
</g>
<g id="Layer_2" class="st0">
	
		<g id="layer1_00000049907978329260778960000014211856375339642795_" transform="translate(-0.99262638,-1.174181)" inkscape:groupmode="layer" inkscape:label="Calque 1" class="st1">
		
			<g id="g70_00000146488639164567105130000006492103077610618517_" transform="matrix(1.0148887,0,0,1.0148887,16.902146,-2.698726)">
			
				<path id="path3055_00000018210132935261040370000013045303021883091081_" inkscape:connector-curvature="0" inkscape:export-filename="new.png" inkscape:export-xdpi="250.55" inkscape:export-ydpi="250.55" class="st2" d="
				M9.3,5.1c-0.4,0-0.8,0.1-1.2,0.3l-16.6,7.9c-0.9,0.4-1.5,1.2-1.7,2.1l-4.1,17.8c-0.2,0.8,0,1.7,0.4,2.4c0.1,0.1,0.1,0.2,0.2,0.3
				l11.5,14.3c0.6,0.8,1.5,1.2,2.5,1.2l18.4,0c1,0,1.9-0.4,2.5-1.2l11.5-14.3c0.6-0.7,0.8-1.7,0.6-2.7l-4.1-17.8
				c-0.2-0.9-0.8-1.7-1.7-2.1L10.9,5.4C10.4,5.2,9.9,5.1,9.3,5.1z"/>
			<path id="path3054-2-9_00000129907328562206729320000005408988394069738159_" inkscape:connector-curvature="0" class="st3" d="
				M9.3,3.8C8.9,3.8,8.5,4,8.1,4.1l-17.5,8.4c-0.9,0.4-1.6,1.3-1.8,2.3l-4.3,18.8c-0.2,0.9,0,1.8,0.5,2.5c0.1,0.1,0.1,0.2,0.2,0.3
				l12.1,15.1c0.6,0.8,1.6,1.2,2.6,1.2l19.4,0c1,0,2-0.5,2.6-1.2L34,36.4c0.6-0.8,0.9-1.8,0.6-2.8l-4.3-18.8c-0.2-1-0.9-1.8-1.8-2.3
				L11,4.1C10.5,3.9,9.9,3.8,9.3,3.8z M9.3,5.1c0.5,0,1.1,0.1,1.5,0.3l16.6,7.9c0.9,0.4,1.5,1.2,1.7,2.1l4.1,17.8
				c0.2,0.9,0,1.9-0.6,2.7L21.2,50.2c-0.6,0.7-1.5,1.2-2.5,1.2l-18.4,0c-1,0-1.9-0.4-2.5-1.2l-11.5-14.3c-0.1-0.1-0.1-0.2-0.2-0.3
				c-0.5-0.7-0.6-1.6-0.4-2.4l4.1-17.8c0.2-0.9,0.8-1.7,1.7-2.1L8.1,5.4C8.5,5.2,8.9,5.1,9.3,5.1L9.3,5.1z"/>
		</g>
		<text transform="matrix(1 0 0 1 10.0435 41.6574)" class="st3 st4 st5">container</text>
		<g id="g3341_00000088099841665088552940000001206158999925971851_" transform="translate(0.12766661,0)">
			
				<g id="path910_00000078749958682262176640000017737845595381671099_" inkscape:connector-curvature="0" inkscape:export-xdpi="376.57999" inkscape:export-ydpi="376.57999">
				<path class="st3" d="M26.6,14.8L26.6,14.8L26.6,14.8 M26.4,14.9l6.7,1.9l-6.7,1.9l-6.7-1.9L26.4,14.9 M26.4,13.8
					C26.4,13.8,26.4,13.8,26.4,13.8l-9.5,2.8c-0.2,0.1-0.2,0.4,0,0.4l9.5,2.7c0,0,0,0,0.1,0s0,0,0.1,0l9.5-2.7
					c0.2-0.1,0.2-0.4,0-0.4L26.4,13.8C26.5,13.8,26.4,13.8,26.4,13.8L26.4,13.8z"/>
			</g>
			
				<g id="path912_00000052066885865661980230000014134000450473235378_" inkscape:connector-curvature="0" inkscape:export-xdpi="376.57999" inkscape:export-ydpi="376.57999">
				<path class="st3" d="M17.2,19.3l7.6,2.3l0,10.9l-7.6-4.2V19.3 M16.5,18c-0.2,0-0.3,0.1-0.3,0.3v10.3c0,0.1,0.1,0.2,0.2,0.3
					l8.9,4.9c0.1,0,0.1,0,0.2,0c0.2,0,0.3-0.1,0.3-0.3l0-12.6c0-0.1-0.1-0.3-0.2-0.3L16.5,18C16.5,18,16.5,18,16.5,18L16.5,18z"/>
			</g>
			
				<g id="path914_00000110443100234381275060000004008334818945349047_" inkscape:connector-curvature="0" inkscape:export-xdpi="376.57999" inkscape:export-ydpi="376.57999">
				<path class="st3" d="M35.7,19.3v9l-7.6,4.2l0-10.9L35.7,19.3 M36.6,18C36.6,18,36.6,18,36.6,18l-9.5,2.8l0,12.8
					c0,0.2,0.2,0.3,0.3,0.3c0.1,0,0.1,0,0.2,0l9.1-5L36.6,18C36.7,18,36.7,18,36.6,18L36.6,18z"/>
			</g>
		</g>
	</g>
	<polygon class="st8" points="30.9,17.9 30.8,17.9 25.6,16.3 20.3,17.9 20.3,17.9 20.3,25 25.5,27.3 30.9,24.9 30.9,17.9 	"/>
</g>
</svg>
